Coordinates
version=1
nRows=11
nColumns=40
inDegrees=yes

Units are S.I. units (second, meters, Newtons, ...)
If the header above contains a line with 'inDegrees', this indicates whether rotational values are in degrees (yes) or radians (no).

endheader
time	pelvis_tilt	pelvis_list	pelvis_rotation	pelvis_tx	pelvis_ty	pelvis_tz	hip_flexion_r	hip_adduction_r	hip_rotation_r	knee_angle_r	knee_angle_r_beta	ankle_angle_r	subtalar_angle_r	mtp_angle_r	hip_flexion_l	hip_adduction_l	hip_rotation_l	knee_angle_l	knee_angle_l_beta	ankle_angle_l	subtalar_angle_l	mtp_angle_l	lumbar_extension	lumbar_bending	lumbar_rotation	arm_flex_r	arm_add_r	arm_rot_r	elbow_flex_r	pro_sup_r	wrist_flex_r	wrist_dev_r	arm_flex_l	arm_add_l	arm_rot_l	elbow_flex_l	pro_sup_l	wrist_flex_l	wrist_dev_l
      4.53500000	    -17.80365019	      5.79508818	     15.54351867	     -1.28806732	      0.99076059	      0.28249153	     22.02316990	     -7.08302548	    -13.38260423	    107.17084816	      1.87048416	      4.33752455	      0.00000000	      0.00000000	     38.42866991	     11.10740312	      3.20397983	     40.70581090	      0.71045042	     16.32989854	      0.00000000	      0.00000000	     -6.97470111	     -4.70535502	     -8.11431112	    -15.12715944	     -6.74455416	    -13.18106703	     71.88004046	     88.48444969	      0.00000000	      0.00000000	     19.23713058	    -22.96053934	     22.09459904	     73.17705892	     88.08104216	      0.00000000	      0.00000000
      4.54000000	    -17.83826957	      5.38312349	     16.17442864	     -1.26015680	      0.98925782	      0.28033296	     24.80515948	     -7.64431080	    -13.30663646	    108.78718859	      1.89869462	      5.17053840	      0.00000000	      0.00000000	     37.09514141	     10.87268188	      3.91349602	     41.66864297	      0.72725501	     18.24882653	      0.00000000	      0.00000000	     -6.74115705	     -4.24120909	     -9.26880602	    -16.71941595	     -6.54132659	    -15.51089410	     70.58208891	     88.48569985	      0.00000000	      0.00000000	     21.41071141	    -21.96775160	     23.45555847	     73.20141113	     88.08749075	      0.00000000	      0.00000000
      4.54500000	    -17.96727066	      4.86095167	     16.70624060	     -1.23216904	      0.98769389	      0.27830196	     27.78629419	     -8.10744457	    -13.11692320	    110.07703273	      1.92120665	      5.90133599	      0.00000000	      0.00000000	     35.72047555	     10.42656133	      4.53345654	     42.28184777	      0.73795746	     20.18358619	      0.00000000	      0.00000000	     -6.33535343	     -3.68072074	    -10.31168445	    -18.38513538	     -6.35455863	    -17.98228607	     69.53691782	     88.49303160	      0.00000000	      0.00000000	     23.46452203	    -20.97326634	     24.76678992	     73.36267332	     88.08951014	      0.00000000	      0.00000000
      4.55000000	    -18.12744731	      4.34140485	     17.10065004	     -1.20380524	      0.98620656	      0.27635185	     30.81189361	     -8.56609285	    -12.81927779	    111.07340053	      1.93859655	      6.62499133	      0.00000000	      0.00000000	     34.16789668	      9.88701203	      5.16669128	     42.48169151	      0.74144539	     22.14323862	      0.00000000	      0.00000000	     -5.84167546	     -3.12864503	    -11.34099383	    -20.03680361	     -6.26696139	    -20.33808852	     68.65176401	     88.49866788	      0.00000000	      0.00000000	     25.19656911	    -20.02003022	     25.69130319	     73.76257753	     88.10125638	      0.00000000	      0.00000000
      4.55500000	    -18.06650076	      3.89503098	     17.29213126	     -1.17462464	      0.98549228	      0.27479997	     33.55582117	     -8.89917830	    -12.36154619	    111.61308282	      1.94801578	      7.21215197	      0.00000000	      0.00000000	     32.11331769	      9.14715846	      5.58292316	     42.14121579	      0.73550297	     23.73178653	      0.00000000	      0.00000000	     -5.55860435	     -2.59048271	    -12.57536260	    -21.39477701	     -6.29451517	    -22.43450068	     67.65387182	     88.44108748	      0.00000000	      0.00000000	     26.32784909	    -19.32278060	     25.87326032	     74.76021277	     88.12768379	      0.00000000	      0.00000000
      4.56000000	    -18.64682435	      3.08372194	     17.60521661	     -1.14655858	      0.98325456	      0.27269550	     37.18722816	     -9.21246744	    -12.04621313	    112.08904558	      1.95632290	      7.84006703	      0.00000000	      0.00000000	     30.95192477	      8.35180561	      6.29340162	     41.97209584	      0.73255127	     25.54321171	      0.00000000	      0.00000000	     -4.45163901	     -1.83798886	    -12.95833234	    -23.64914794	     -6.14605013	    -25.38714754	     67.67770537	     88.50090181	      0.00000000	      0.00000000	     28.37346632	    -18.05974266	     27.40739898	     74.82766681	     88.12761748	      0.00000000	      0.00000000
      4.56500000	    -18.70435998	      2.50010226	     17.64565889	     -1.11700584	      0.98259305	      0.27116581	     40.04870222	     -9.38619596	    -11.58916199	    112.00360280	      1.95483164	      8.34130529	      0.00000000	      0.00000000	     28.84625379	      7.37940811	      6.71174722	     41.07719046	      0.71693222	     26.63117948	      0.00000000	      0.00000000	     -3.91973354	     -1.15499561	    -13.90345267	    -25.28076187	     -6.24635314	    -27.60190834	     67.33771603	     88.44687433	      0.00000000	      0.00000000	     29.36488476	    -17.33815593	     27.55855005	     75.93110625	     88.14435013	      0.00000000	      0.00000000
      4.57000000	    -19.30515852	      1.71368980	     17.66962107	     -1.08833574	      0.98069099	      0.26933914	     43.63848929	     -9.55336475	    -11.13295868	    111.83701876	      1.95192420	      8.82073088	      0.00000000	      0.00000000	     27.50986164	      6.42016250	      7.26257352	     40.41620314	      0.70539582	     27.93833285	      0.00000000	      0.00000000	     -2.73165155	     -0.42974677	    -14.03507995	    -27.58307876	     -6.10807114	    -30.54456620	     67.64492908	     88.48565396	      0.00000000	      0.00000000	     31.05534475	    -16.08819509	     28.79606427	     76.27033265	     88.15437298	      0.00000000	      0.00000000
      4.57500000	    -19.41042970	      1.06955746	     17.61291489	     -1.05815940	      0.98022698	      0.26785675	     46.40513422	     -9.62907224	    -10.80069863	    111.17320570	      1.94033848	      9.16815465	      0.00000000	      0.00000000	     25.35855907	      5.28835512	      7.54682163	     39.17839164	      0.68379193	     28.09141914	      0.00000000	      0.00000000	     -2.05801310	      0.31600521	    -14.77727282	    -29.44815803	     -6.27738776	    -32.66140152	     67.73824701	     88.40630061	      0.00000000	      0.00000000	     31.85027156	    -15.39983648	     28.97720963	     77.56358507	     88.16709299	      0.00000000	      0.00000000
      4.58000000	    -20.14028561	      0.24466372	     17.26861586	     -1.02910736	      0.97852749	      0.26649112	     50.04995917	     -9.45731026	    -10.18660502	    110.37009541	      1.92632156	      9.47634048	      0.00000000	      0.00000000	     24.05583646	      4.16724771	      7.98639785	     38.16300570	      0.66607010	     28.58718392	      0.00000000	      0.00000000	     -0.68508328	      1.08759190	    -14.49009537	    -31.81002208	     -6.00342068	    -35.74913450	     68.40020013	     88.47198646	      0.00000000	      0.00000000	     33.33931367	    -14.12958431	     30.07421757	     77.90453089	     88.15045545	      0.00000000	      0.00000000
      4.58500000	    -20.33657282	     -0.45750577	     17.10173418	     -0.99869407	      0.97824393	      0.26499345	     52.73570971	     -9.40386573	     -9.94414116	    109.17199830	      1.90541082	      9.77283115	      0.00000000	      0.00000000	     21.94310916	      2.98055143	      8.36712250	     36.64290925	      0.63953941	     28.05188535	      0.00000000	      0.00000000	      0.12845209	      1.91453396	    -14.99591576	    -33.82553514	     -6.11667090	    -37.93231347	     68.93650766	     88.39032461	      0.00000000	      0.00000000	     34.08521542	    -13.40976306	     30.37439381	     79.13623084	     88.16102604	      0.00000000	      0.00000000
